<svg width="29" height="30" viewBox="0 0 29 30" fill="none" xmlns="http://www.w3.org/2000/svg">
<path d="M27.0013 17C28.1059 16.9993 29.0007 16.1033 29 14.9987C28.9993 13.8941 28.1033 12.9993 26.9987 13L27.0013 17ZM0.584863 13.6032C-0.195673 14.3847 -0.19484 15.651 0.586723 16.4316L13.323 29.1511C14.1046 29.9317 15.3709 29.9308 16.1514 29.1493C16.932 28.3677 16.9311 27.1014 16.1496 26.3208L4.82843 15.0146L16.1347 3.69343C16.9152 2.91187 16.9144 1.64554 16.1328 0.865006C15.3513 0.0844709 14.0849 0.0853034 13.3044 0.866865L0.584863 13.6032ZM26.9987 13L1.99869 13.0164L2.00132 17.0164L27.0013 17L26.9987 13Z" fill="white"/>
</svg>
