<svg width="17" height="21" viewBox="0 0 17 21" fill="none" xmlns="http://www.w3.org/2000/svg">
<g clip-path="url(#clip0_762_677)">
<path d="M5.60031 0.0296636C5.55698 0.0460701 5.2312 0.22982 4.87814 0.436539C4.52509 0.644898 4.06611 0.913961 3.85909 1.03373C3.37604 1.31427 3.2974 1.39302 3.24605 1.64732C3.20914 1.82123 3.22198 1.85076 3.68416 2.6563C4.45447 4.00162 6.03361 6.68076 6.09941 6.75787C6.18607 6.85466 6.31124 6.93177 6.44123 6.96623C6.62258 7.01216 6.629 7.01052 7.48436 6.50849C7.90482 6.26076 8.37183 5.98677 8.52428 5.89982C8.90302 5.67998 9.00252 5.56513 9.04585 5.29279C9.07955 5.08115 9.0651 5.04505 8.70723 4.43802C7.0302 1.60138 6.21335 0.228179 6.17162 0.17732C6.05447 0.0345855 5.77845 -0.0376019 5.60031 0.0296636Z" fill="white"/>
<path d="M2.62819 2.23127C1.77763 2.48065 1.19669 3.11229 0.912639 4.09995C0.455267 5.68643 0.806721 8.1851 1.87713 10.9594C2.96038 13.7649 4.5989 16.4292 6.38666 18.2914C7.91765 19.8844 9.37804 20.7621 10.84 20.9689C11.0438 20.9984 11.6553 20.9984 11.843 20.9705C12.1929 20.9164 12.5042 20.831 12.8123 20.7064C12.9504 20.6489 13.0964 20.5817 13.1156 20.5653C13.1237 20.5587 11.7163 18.0535 11.551 17.7844C11.3824 17.5088 11.0519 16.9575 10.5399 16.0946C10.2671 15.6368 10.3152 15.6729 10.0697 15.7353C9.86429 15.7861 9.43741 15.791 9.19509 15.7435C8.66389 15.6434 8.05406 15.3317 7.51003 14.8854C7.28696 14.7033 6.87292 14.2899 6.66429 14.0438C6.34815 13.6697 6.02718 13.2136 5.76078 12.7559C5.5987 12.477 5.51846 12.3129 5.41093 12.034C5.14132 11.3351 4.97442 10.6903 4.89258 10.0324C4.85246 9.7076 4.85567 9.14651 4.9006 8.84791C4.98566 8.26877 5.18626 7.78643 5.50562 7.38776C5.55376 7.3287 5.58907 7.27619 5.58586 7.26963C5.58265 7.26471 5.49599 7.11377 5.39328 6.93495C5.12367 6.46573 4.72889 5.73401 4.08375 4.51174C3.29418 3.01221 2.83842 2.18205 2.80792 2.18369C2.7999 2.18369 2.71806 2.20502 2.62819 2.23127Z" fill="white"/>
<path d="M13.0547 13.3119C13.0242 13.3251 12.6743 13.5252 12.2763 13.7598C11.8799 13.9944 11.421 14.2619 11.2573 14.3554C10.9379 14.5408 10.8272 14.6326 10.763 14.7672C10.6812 14.9394 10.686 15.1199 10.7742 15.2807C11.8992 17.3216 13.4687 20.0828 13.557 20.1763C13.5859 20.2058 13.6549 20.2551 13.7126 20.2829C13.8073 20.3305 13.8298 20.3354 13.9694 20.3354H14.1235L14.3786 20.1845C14.5199 20.1025 14.9965 19.8236 15.4378 19.566C15.8791 19.3068 16.2595 19.0754 16.2852 19.0508C16.351 18.9885 16.4071 18.895 16.4424 18.7883C16.4777 18.685 16.4842 18.4619 16.4537 18.3733C16.444 18.3421 16.2932 18.0697 16.1199 17.7679C15.9449 17.466 15.4731 16.6391 15.0687 15.9304C14.016 14.0847 13.6982 13.5351 13.6452 13.4662C13.6164 13.4284 13.557 13.3841 13.4912 13.3513C13.3997 13.3054 13.366 13.2972 13.2473 13.2939C13.1622 13.2906 13.09 13.2988 13.0547 13.3119Z" fill="white"/>
</g>
<defs>
<clipPath id="clip0_762_677">
<rect width="16" height="21" fill="white" transform="translate(0.713654)"/>
</clipPath>
</defs>
</svg>
