<svg width="80" height="80" viewBox="0 0 80 80" fill="none" xmlns="http://www.w3.org/2000/svg">
<path d="M40.0001 73.3333C58.4096 73.3333 73.3334 58.4095 73.3334 40C73.3334 21.5905 58.4096 6.66663 40.0001 6.66663C21.5906 6.66663 6.66675 21.5905 6.66675 40C6.66675 58.4095 21.5906 73.3333 40.0001 73.3333Z" stroke="#0076FF" stroke-width="4" stroke-linecap="round" stroke-linejoin="round"/>
<path d="M40.0001 60C51.0458 60 60.0001 51.0457 60.0001 40C60.0001 28.9543 51.0458 20 40.0001 20C28.9544 20 20.0001 28.9543 20.0001 40C20.0001 51.0457 28.9544 60 40.0001 60Z" stroke="#0076FF" stroke-width="4" stroke-linecap="round" stroke-linejoin="round"/>
<path d="M40.0001 46.6666C43.682 46.6666 46.6667 43.6819 46.6667 40C46.6667 36.3181 43.682 33.3333 40.0001 33.3333C36.3182 33.3333 33.3334 36.3181 33.3334 40C33.3334 43.6819 36.3182 46.6666 40.0001 46.6666Z" stroke="#0076FF" stroke-width="4" stroke-linecap="round" stroke-linejoin="round"/>
</svg>
