<svg width="80" height="80" viewBox="0 0 80 80" fill="none" xmlns="http://www.w3.org/2000/svg">
<path d="M39.9999 40C36.3333 40 33.1944 38.6945 30.5833 36.0834C27.9721 33.4723 26.6666 30.3334 26.6666 26.6667C26.6666 23 27.9721 19.8612 30.5833 17.25C33.1944 14.6389 36.3333 13.3334 39.9999 13.3334C43.6666 13.3334 46.8055 14.6389 49.4166 17.25C52.0277 19.8612 53.3333 23 53.3333 26.6667C53.3333 30.3334 52.0277 33.4723 49.4166 36.0834C46.8055 38.6945 43.6666 40 39.9999 40ZM13.3333 66.6667V57.3334C13.3333 55.4445 13.8194 53.7084 14.7916 52.125C15.7638 50.5417 17.0555 49.3334 18.6666 48.5C22.111 46.7778 25.611 45.4861 29.1666 44.625C32.7221 43.7639 36.3333 43.3334 39.9999 43.3334C43.6666 43.3334 47.2777 43.7639 50.8333 44.625C54.3888 45.4861 57.8888 46.7778 61.3333 48.5C62.9444 49.3334 64.236 50.5417 65.2083 52.125C66.1805 53.7084 66.6666 55.4445 66.6666 57.3334V66.6667H13.3333ZM19.9999 60H59.9999V57.3334C59.9999 56.7223 59.8471 56.1667 59.5416 55.6667C59.236 55.1667 58.8333 54.7778 58.3333 54.5C55.3333 53 52.3055 51.875 49.2499 51.125C46.1944 50.375 43.111 50 39.9999 50C36.8888 50 33.8055 50.375 30.7499 51.125C27.6944 51.875 24.6666 53 21.6666 54.5C21.1666 54.7778 20.7638 55.1667 20.4583 55.6667C20.1527 56.1667 19.9999 56.7223 19.9999 57.3334V60ZM39.9999 33.3334C41.8333 33.3334 43.4027 32.6806 44.7083 31.375C46.0138 30.0695 46.6666 28.5 46.6666 26.6667C46.6666 24.8334 46.0138 23.2639 44.7083 21.9584C43.4027 20.6528 41.8333 20 39.9999 20C38.1666 20 36.5971 20.6528 35.2916 21.9584C33.986 23.2639 33.3333 24.8334 33.3333 26.6667C33.3333 28.5 33.986 30.0695 35.2916 31.375C36.5971 32.6806 38.1666 33.3334 39.9999 33.3334Z" fill="#0076FF"/>
</svg>
