<svg width="21" height="20" viewBox="0 0 21 20" fill="none" xmlns="http://www.w3.org/2000/svg">
<path d="M20.7136 19.6614H0V2.83545H20.7136V19.6614ZM0.647301 19.0161H20.0663V3.48074H0.647301V19.0161Z" fill="white"/>
<path d="M18.531 6.56042V10.3984H2.18289V6.56042H18.531ZM19.1678 5.92529H1.54594V11.0332H19.1678V5.92529Z" fill="white"/>
<path d="M6.17188 12.6097V14.1925H2.18289V12.6097H6.17188ZM6.80883 11.9746H1.54594V14.8274H6.80883V11.9746Z" fill="white"/>
<path d="M6.80883 15.6162H1.54594V16.2615H6.80883V15.6162Z" fill="white"/>
<path d="M6.80883 17.2383H1.54594V17.8836H6.80883V17.2383Z" fill="white"/>
<path d="M12.9883 15.6162H7.72554V16.2615H12.9883V15.6162Z" fill="white"/>
<path d="M14.4513 8.13208H6.2623V8.77737H14.4513V8.13208Z" fill="white"/>
<path d="M12.9883 17.2383H7.72554V17.8836H12.9883V17.2383Z" fill="white"/>
<path d="M19.1678 15.6162H13.905V16.2615H19.1678V15.6162Z" fill="white"/>
<path d="M19.1678 17.2383H13.905V17.8836H19.1678V17.2383Z" fill="white"/>
<path d="M12.3513 12.6097V14.1925H8.36248V12.6097H12.3513ZM12.9884 11.9746H7.72554V14.8274H12.9883L12.9884 11.9746Z" fill="white"/>
<path d="M18.531 12.6097V14.1925H14.542V12.6097H18.531ZM19.1678 11.9746H13.905V14.8274H19.1678V11.9746Z" fill="white"/>
<path d="M20.7136 3.4803H0V0.476807H20.7136V3.4803ZM0.647301 2.83501H20.0663V1.1221H0.647301V2.83501Z" fill="white"/>
<path d="M2.00194 1.63867H1.24055V2.28396H2.00194V1.63867Z" fill="white"/>
<path d="M3.32077 1.63867H2.5589V2.28396H3.32077V1.63867Z" fill="white"/>
<path d="M4.6391 1.63867H3.87723V2.28396H4.6391V1.63867Z" fill="white"/>
<path d="M10.0532 4.50293H3.33037V5.14822H10.0532V4.50293Z" fill="white"/>
<path d="M2.37918 4.50293H1.54594V5.14822H2.37918V4.50293Z" fill="white"/>
</svg>
