<svg width="40" height="40" viewBox="0 0 40 40" fill="none" xmlns="http://www.w3.org/2000/svg">
<path d="M29.1666 10.8333H29.1833M11.6666 3.33325H28.3333C32.9357 3.33325 36.6666 7.06421 36.6666 11.6666V28.3333C36.6666 32.9356 32.9357 36.6666 28.3333 36.6666H11.6666C7.06427 36.6666 3.33331 32.9356 3.33331 28.3333V11.6666C3.33331 7.06421 7.06427 3.33325 11.6666 3.33325ZM26.6666 18.9499C26.8723 20.337 26.6354 21.7536 25.9896 22.9983C25.3437 24.2429 24.3219 25.2523 23.0694 25.8827C21.8168 26.5131 20.3974 26.7326 19.013 26.5098C17.6285 26.287 16.3496 25.6334 15.358 24.6419C14.3665 23.6503 13.7129 22.3714 13.4901 20.9869C13.2673 19.6025 13.4868 18.1831 14.1172 16.9305C14.7476 15.678 15.757 14.6562 17.0016 14.0103C18.2463 13.3645 19.6629 13.1276 21.05 13.3333C22.4649 13.5431 23.7747 14.2024 24.7861 15.2138C25.7975 16.2252 26.4568 17.535 26.6666 18.9499Z" stroke="white" stroke-width="4" stroke-linecap="round" stroke-linejoin="round"/>
</svg>
