<svg width="40" height="40" viewBox="0 0 40 40" fill="none" xmlns="http://www.w3.org/2000/svg">
<path d="M26.6666 13.3333C29.3188 13.3333 31.8624 14.3868 33.7377 16.2622C35.6131 18.1375 36.6666 20.6811 36.6666 23.3333V34.9999H30V23.3333C30 22.4492 29.6488 21.6014 29.0237 20.9762C28.3985 20.3511 27.5507 19.9999 26.6666 19.9999C25.7826 19.9999 24.9347 20.3511 24.3096 20.9762C23.6845 21.6014 23.3333 22.4492 23.3333 23.3333V34.9999H16.6666V23.3333C16.6666 20.6811 17.7202 18.1375 19.5956 16.2622C21.4709 14.3868 24.0145 13.3333 26.6666 13.3333Z" stroke="white" stroke-width="4" stroke-linecap="round" stroke-linejoin="round"/>
<path d="M9.99998 14.9999H3.33331V34.9999H9.99998V14.9999Z" stroke="white" stroke-width="4" stroke-linecap="round" stroke-linejoin="round"/>
<path d="M6.66665 9.99992C8.5076 9.99992 9.99998 8.50753 9.99998 6.66659C9.99998 4.82564 8.5076 3.33325 6.66665 3.33325C4.8257 3.33325 3.33331 4.82564 3.33331 6.66659C3.33331 8.50753 4.8257 9.99992 6.66665 9.99992Z" stroke="white" stroke-width="4" stroke-linecap="round" stroke-linejoin="round"/>
</svg>
