<svg width="128" height="54" viewBox="0 0 128 54" fill="none" xmlns="http://www.w3.org/2000/svg">
<path d="M56.8323 21.6907C56.7169 21.4807 56.5779 21.2603 56.4567 21.0548C56.4286 20.8728 56.4271 20.6628 56.4019 20.475C56.3872 19.808 56.1283 19.2135 55.908 18.5968C55.9006 18.5761 55.8947 18.5628 55.8962 18.5657C56.0648 19.0715 56.2038 19.8465 56.3561 20.3375C55.9701 15.2056 53.3687 10.1492 49.1892 7.53741C45.9652 5.43882 43.7453 5.6222 42.923 5.53051C42.4749 5.29536 42.012 5.07944 41.5521 4.87091C41.3199 4.76591 41.1114 4.61062 40.9428 4.41984C40.7742 4.22906 40.5952 4.02497 40.4059 3.83419C36.0342 -0.958999 29.4974 -1.02555 24.37 2.34344C24.5519 2.36266 25.1568 2.33604 25.3017 2.35083C21.6709 2.2754 17.9855 3.19973 14.72 4.87683C14.3873 4.95225 14.0382 4.95373 13.7173 5.0188C12.6406 5.18888 11.6128 5.47579 10.6204 5.91207C6.50756 7.62171 4.14424 12.1428 3.81888 15.4748C3.81444 15.4792 3.8455 15.4526 3.84994 15.457L3.81 15.5132C2.42426 17.3205 1.07696 19.5877 0.466163 21.6715C-0.965434 26.0476 1.0459 29.9002 4.51101 31.6719C5.44421 33.2736 6.6451 34.6889 8.15064 35.7981C9.38998 37.9899 11.1188 39.7528 13.8622 40.3502C15.7553 40.8205 18.5238 40.3635 20.51 39.5294C20.5632 39.5117 20.6209 39.4777 20.6697 39.4732C20.7185 39.4821 20.757 39.522 20.8013 39.5442C24.5696 42.0747 28.051 44.0135 33.0675 41.767C33.1267 41.7449 33.1651 41.7567 33.2095 41.767C33.3426 41.8129 33.5718 41.8011 33.6147 41.9297C36.6909 51.0162 40.1294 47.6783 44.5351 48.4266C44.5735 48.4326 44.6297 48.4237 44.6667 48.4385C44.717 48.4592 44.964 51.7261 48.8801 53.381C50.0086 53.8572 50.4153 53.6812 50.3561 52.5647C50.0189 50.1377 48.4882 48.0332 47.3317 46.3073C45.2775 43.2401 43.2632 40.8974 41.3672 38.827C38.9921 36.2344 37.0843 34.8546 35.1247 33.1923C34.8792 32.9837 34.3024 32.3182 33.8425 32.2694C33.7256 32.2724 33.6768 32.3833 33.5955 32.4587C33.5881 32.4661 33.5659 32.4898 33.5615 32.4957C33.4905 32.5711 30.1363 36.19 30.0978 36.2314C29.9677 36.3867 29.7444 36.5849 29.5492 36.4489C29.3096 36.2891 29.1839 35.7449 29.0833 35.3885C28.9872 35.0868 28.8274 34.5277 28.6766 34.1018C28.4681 33.6019 28.1264 32.1807 27.9283 31.6438C27.9076 31.5048 27.9475 31.3628 27.9904 31.2283C28.0969 30.9561 28.2728 30.9325 28.1338 30.7092C28.0702 30.65 27.6813 30.6766 27.6635 30.6899C27.6768 30.7018 27.6975 30.7165 27.7094 30.7299C27.7153 30.7387 27.7256 30.758 27.7301 30.7683C27.7375 30.792 27.7449 30.8008 27.7434 30.7949C27.7404 30.7846 27.628 30.6692 27.6132 30.6308C26.4981 27.0311 25.2558 23.0232 24.1496 19.4205C24.0772 19.076 23.6823 18.4045 24.0905 18.196C24.1422 18.1783 24.1851 18.1575 24.2324 18.1709C27.3707 18.7876 30.8905 19.6882 34.0406 20.3744C36.7855 20.7412 39.6369 21.5502 42.3315 22.266C42.5592 22.3473 42.6554 22.6387 42.5104 22.8398C41.7991 23.6059 39.4905 26.1053 39.1059 26.5208C39.134 26.5682 39.2464 26.682 39.2938 26.7397C41.0419 28.158 41.0241 28.158 46.5242 31.2238C48.0238 32.0594 53.7635 32.1245 57.0467 27.5191C57.0512 27.528 57.0512 27.5576 57.0541 27.5768C57.0571 27.6123 57.0571 27.6581 57.0778 27.6286C57.1133 27.565 57.1651 27.4703 57.1991 27.3979C58.1412 25.6039 57.7551 23.3012 56.8412 21.7099L56.8338 21.6951L56.8323 21.6907ZM6.98525 10.7511C6.97046 10.7481 6.95715 10.7452 6.94236 10.7422C6.96307 10.7393 6.98229 10.7363 7.00152 10.7334C6.99708 10.7393 6.99117 10.7452 6.98525 10.7511ZM33.0113 19.2046C33.0438 19.212 33.7064 19.3244 33.7582 19.3333C33.5171 19.2993 33.2686 19.2579 33.0113 19.2046ZM33.8336 19.3436C34.0332 19.3688 34.2255 19.388 34.4074 19.3984C34.3098 19.4072 34.0894 19.3821 33.8336 19.3436Z" fill="white"/>
<path d="M50.081 50.9822C49.5929 49.0892 49.3282 47.7685 47.9883 46.084C44.575 40.5499 38.9536 35.9889 33.869 32.157C33.7152 32.3286 30.3093 35.9963 30.0963 36.227C29.382 37.0789 29.1823 35.634 29.0093 35.1518C27.4831 30.2108 25.6078 24.1398 24.0874 19.2135C24.012 18.9547 23.7858 18.48 23.9958 18.2522C24.0401 18.1975 24.1614 18.1516 24.2191 18.162C28.5967 19.0627 34.1175 20.4159 38.5543 21.3934C44.4566 22.7688 43.1389 21.6567 39.1281 26.5416C43.1419 30.6663 50.6696 34.7289 55.9523 30.2507C59.1823 29.319 49.9301 53.0926 50.0839 50.9941L50.081 50.9822Z" fill="#001329"/>
<path d="M75.2286 19.2454C75.9998 18.9392 77.3377 18.975 78.2323 19.0585C79.2869 19.134 79.9912 19.6649 80.3394 20.6251C81.0539 22.4999 81.6651 25.164 82.5517 27.2435C82.7966 27.7883 83.1265 28.6094 83.6143 28.8678C84.1851 29.0408 84.4057 28.2754 84.7599 27.1958C85.3186 25.2594 85.9238 22.8816 86.6403 21.2852C87.3649 19.3647 89.2938 18.9471 91.1863 19.0366C92.5627 19.0883 93.0626 19.5138 92.9938 21.2215C92.9938 23.5417 92.9938 25.8558 92.9938 28.2117C92.9938 29.7088 92.9938 31.1422 92.9938 32.2595C92.9837 33.3669 93.0525 34.1204 92.7064 34.516C91.9838 35.2139 90.2431 35.1264 89.646 34.4504C89.5104 34.2854 89.4375 34.0966 89.389 33.8799C89.2493 33.2317 89.3161 31.7744 89.2999 30.671C89.2999 29.0229 89.2999 27.0189 89.2999 25.4423C89.2695 24.993 89.4133 22.983 88.97 24.0526C88.1543 26.0387 86.4581 30.6233 85.4522 33.1462C85.1526 33.8639 84.7397 34.6453 83.9402 34.8103C81.5822 35.1105 80.8575 32.7168 80.2503 30.7307C79.8536 29.4941 79.469 28.2237 79.1148 27.1302C78.3902 24.9731 77.7769 23.9791 77.7061 26.3926C77.6757 27.9453 77.702 29.6153 77.6939 31.2655C77.6818 32.5538 77.7546 33.5836 77.4733 34.1661C77.0563 35.0767 75.6496 35.1582 74.9574 34.6353C74.6133 34.363 74.1417 33.9196 74.1295 33.4663C74.1113 30.8579 74.002 24.1262 74 21.0864C74.0182 20.4044 74.4959 19.5714 75.2003 19.2593L75.2286 19.2454Z" fill="white"/>
<path d="M105.138 38.1043C105.362 38.2497 105.343 38.4987 105.348 38.9369C105.348 39.2815 105.348 39.7138 105.348 40.136C105.348 40.4806 105.348 40.8173 105.348 41.0941C105.36 41.5861 105.3 42.0642 105.653 42.4187C106.133 42.9207 107.113 42.837 107.463 42.1737C107.627 41.8789 107.643 41.5622 107.65 41.2097C107.656 40.6121 107.65 39.8572 107.652 39.2417C107.68 38.7178 107.563 38.3434 107.873 38.1083C108.142 37.9629 108.646 37.943 108.877 38.198C109.013 38.3653 108.994 38.7019 108.996 39.162C108.982 39.9508 109.031 40.9447 108.963 41.6738C108.881 42.2813 108.607 42.9107 108.168 43.3489C107.379 44.0959 105.915 44.2253 105.003 43.6059C104.612 43.327 104.3 42.8828 104.13 42.4366C103.997 42.0801 104.001 41.7654 104.001 41.2296C104.003 40.5125 103.995 39.2955 104.005 38.6103C104.015 38.439 104.028 38.2537 104.163 38.1402C104.411 37.9609 104.841 37.9609 105.124 38.0984L105.134 38.1043H105.138Z" fill="white"/>
<path d="M118.138 38.1043C118.362 38.2497 118.343 38.4987 118.348 38.9369C118.348 39.2815 118.348 39.7138 118.348 40.136C118.348 40.4806 118.348 40.8173 118.348 41.0941C118.36 41.5861 118.3 42.0642 118.653 42.4187C119.133 42.9207 120.113 42.837 120.463 42.1737C120.627 41.8789 120.643 41.5622 120.65 41.2097C120.656 40.6121 120.65 39.8572 120.652 39.2417C120.68 38.7178 120.563 38.3434 120.873 38.1083C121.142 37.9629 121.646 37.943 121.877 38.198C122.013 38.3653 121.994 38.7019 121.996 39.162C121.982 39.9508 122.031 40.9447 121.963 41.6738C121.881 42.2813 121.607 42.9107 121.168 43.3489C120.379 44.0959 118.915 44.2253 118.003 43.6059C117.612 43.327 117.3 42.8828 117.13 42.4366C116.997 42.0801 117.001 41.7654 117.001 41.2296C117.003 40.5125 116.995 39.2955 117.005 38.6103C117.015 38.439 117.028 38.2537 117.163 38.1402C117.411 37.9609 117.841 37.9609 118.124 38.0984L118.134 38.1043H118.138Z" fill="white"/>
<path d="M124.483 38.1667C124.999 38.5076 124.999 39.5186 125.524 39.755C126.131 39.755 126.238 38.2081 127.007 38.0741C127.355 37.9893 127.966 37.9558 127.968 38.3027C127.963 38.4406 127.852 38.6456 127.699 38.8998C127.382 39.4378 126.982 39.9954 126.721 40.5729C126.452 41.1207 126.815 41.6311 127.101 42.0804C127.366 42.5021 127.733 43.0066 127.936 43.4362C128.098 43.787 127.936 43.9328 127.637 43.9762C127.221 44.0392 126.723 43.9486 126.475 43.5407C126.175 43.1347 125.961 42.2479 125.518 42.2046C124.883 42.376 124.834 43.8323 123.982 43.9584C123.692 44.0117 123.244 44.053 123.032 43.8225C122.836 43.5328 123.598 42.7071 123.785 42.374C124.105 41.8498 124.597 41.3591 124.409 40.7108C124.177 40.0408 123.643 39.3511 123.292 38.748C123.2 38.5667 122.992 38.3165 123.151 38.1352C123.453 37.9322 124.168 37.9736 124.472 38.1549L124.485 38.1627L124.483 38.1667Z" fill="white"/>
<path d="M120.207 18.294C120.81 18.6552 120.781 19.4536 120.8 20.1063C120.813 21.705 120.785 24.3037 120.815 25.8187C120.85 26.8306 121.007 27.6549 121.987 26.2977C122.714 25.3396 123.419 24.1361 124.537 23.6112C125.529 23.1461 127.531 22.8747 127.629 23.7848C127.287 25.5173 124.89 27.0142 125.04 28.9942C125.266 30.7466 127.28 32.513 127.891 33.8324C127.96 33.99 128.008 34.1457 127.999 34.3054C127.857 35.0798 126.656 34.99 126.033 35C124.666 34.976 123.784 34.3134 123.03 32.9641C122.424 32.058 121.193 29.2736 120.975 32.1019C120.896 33.4412 120.654 34.7685 119.206 34.9421C118.397 35.014 117.458 35.0559 117.11 34.3453C117.015 34.0839 117.009 33.7406 117.007 33.4272C117.022 30.1658 116.972 22.4216 117.024 19.0864C117.022 18.5195 117.412 18.1562 117.931 18.0844C118.618 17.9487 119.601 17.9527 120.177 18.276L120.207 18.294Z" fill="white"/>
<path d="M104.306 34.8134C103.389 35.3755 102.385 34.4951 101.447 34.4266C100.01 34.34 98.4158 35.3553 96.9116 34.6543C94.5642 33.7961 94.3413 30.0067 96.4506 28.6912C97.3266 28.0849 98.4197 27.8391 99.4301 27.5873C100.174 27.3979 100.744 27.138 100.884 26.8117C101.048 26.4773 100.729 26.0905 100.101 25.8749C99.0959 25.3834 97.1671 26.1972 96.3123 25.6936C95.8628 25.3995 96.0318 24.775 96.3296 24.364C97.7358 22.418 101.699 22.7625 103.608 24.0961C104.536 24.7024 104.967 25.6372 104.972 26.7835C105.02 28.387 104.984 30.5063 104.995 32.1804C105.02 33.0628 104.965 34.4669 104.331 34.7933L104.302 34.8114L104.306 34.8134ZM101.902 29.2775C101.046 28.659 98.8615 29.3742 98.2468 30.2606C97.6705 31.0825 98.3409 32.1865 99.2111 32.3537C100.348 32.6317 101.672 31.4028 102.016 30.3673C102.139 30.0107 102.196 29.5776 101.926 29.3016L101.901 29.2775H101.902Z" fill="white"/>
<path d="M115.873 38.0238C116.142 38.1415 115.925 38.3888 115.77 38.8036C115.019 40.5446 113.856 43.2848 113.328 44.4894C113.237 44.6948 113.092 44.8424 112.877 44.9082C112.486 45.0219 111.77 45.1375 112.072 44.5432C112.585 43.3327 114.038 39.8945 114.57 38.652C114.663 38.4446 114.76 38.2811 114.967 38.1734C115.219 38.0418 115.666 37.958 115.865 38.0218L115.874 38.0258L115.873 38.0238Z" fill="white"/>
<path d="M108.744 23.1753C109.384 22.9133 110.201 22.9717 110.867 23.1753C111.618 23.395 112.283 23.7255 112.943 23.6469C113.53 23.5945 114.144 23.3768 114.735 23.393C115.88 23.4071 116.428 24.9349 115.606 25.6302C115.002 26.1885 113.484 26.3578 112.753 27.1197C112.069 27.8514 112.088 28.6253 112.058 29.7238C112.045 30.8747 112.082 32.2251 112.036 33.372C112.066 34.8836 110.83 35.0973 109.345 34.9683C108.248 34.8997 107.964 34.3697 108.003 33.4002C107.997 31.6346 108.003 28.1658 108.001 25.8318C108.053 24.4491 107.802 23.6872 108.713 23.1894L108.746 23.1753H108.744Z" fill="white"/>
<path d="M111.834 38.059C112.034 38.1508 111.993 38.3563 112 38.7512C112 38.9467 112 39.1382 112 39.3397C112 40.0817 112 41.0731 112 41.897C112 42.3538 112 42.8006 112 43.2494C111.998 43.6065 112.018 43.8199 111.876 43.9117C111.654 44.0314 111.321 44.0314 111.109 43.8997C111.019 43.8299 111.002 43.7062 111.001 43.5127C111.001 42.4715 110.999 39.4195 111.001 38.438C111.004 38.3104 111.013 38.1867 111.094 38.1089C111.256 37.9693 111.636 37.9792 111.824 38.0531L111.832 38.057L111.834 38.059Z" fill="white"/>
</svg>
