<svg width="235" height="217" viewBox="0 0 235 217" fill="none" xmlns="http://www.w3.org/2000/svg">
<path d="M230.765 87.767C230.297 86.9173 229.732 86.0256 229.24 85.1938C229.126 84.4578 229.12 83.608 229.018 82.8481C228.958 80.1492 227.907 77.7436 227.012 75.2482C226.982 75.1644 226.958 75.1105 226.964 75.1225C227.648 77.1691 228.213 80.3048 228.831 82.2915C227.264 61.5265 216.701 41.0666 199.731 30.4986C186.64 22.0071 177.626 22.7491 174.287 22.3781C172.468 21.4266 170.588 20.5529 168.72 19.7092C167.778 19.2843 166.931 18.6559 166.246 17.884C165.562 17.112 164.835 16.2862 164.066 15.5143C146.315 -3.8804 119.773 -4.14968 98.9532 9.48224C99.6918 9.56003 102.148 9.45231 102.736 9.51215C87.9939 9.20696 73.0292 12.9471 59.77 19.7331C58.4188 20.0383 57.0016 20.0443 55.6985 20.3076C51.3268 20.9958 47.1532 22.1567 43.1238 23.922C26.4237 30.8397 16.8275 49.1333 15.5064 62.6156C15.4884 62.6335 15.6145 62.5258 15.6325 62.5438L15.4704 62.7712C9.84358 70.0838 4.37294 79.2576 1.89283 87.6892C-3.9201 105.396 4.24683 120.985 18.3168 128.154C22.106 134.635 26.9821 140.362 33.0953 144.85C38.1276 153.718 45.1475 160.852 56.287 163.269C63.9735 165.172 75.215 163.323 83.2799 159.948C83.4961 159.876 83.7303 159.739 83.9285 159.721C84.1266 159.756 84.2827 159.918 84.4629 160.008C99.7639 170.247 113.9 178.092 134.269 169.002C134.509 168.912 134.665 168.96 134.846 169.002C135.386 169.188 136.317 169.14 136.491 169.66C148.982 206.427 162.943 192.921 180.833 195.949C180.989 195.973 181.217 195.937 181.367 195.997C181.571 196.08 182.574 209.299 198.476 215.996C203.058 217.923 204.709 217.21 204.469 212.692C203.1 202.872 196.884 194.357 192.188 187.373C183.847 174.962 175.668 165.483 167.97 157.105C158.326 146.615 150.579 141.032 142.622 134.306C141.625 133.462 139.283 130.769 137.416 130.572C136.941 130.584 136.743 131.033 136.413 131.338C136.383 131.368 136.293 131.463 136.275 131.487C135.987 131.792 122.367 146.436 122.211 146.603C121.682 147.232 120.776 148.034 119.983 147.483C119.01 146.837 118.5 144.635 118.091 143.192C117.701 141.972 117.053 139.71 116.44 137.986C115.593 135.963 114.206 130.213 113.401 128.04C113.317 127.478 113.48 126.903 113.654 126.359C114.086 125.258 114.801 125.162 114.236 124.258C113.978 124.019 112.399 124.127 112.327 124.181C112.381 124.229 112.465 124.288 112.513 124.342C112.537 124.378 112.579 124.456 112.597 124.498C112.627 124.594 112.657 124.629 112.651 124.606C112.639 124.564 112.182 124.097 112.122 123.941C107.595 109.376 102.55 93.1588 98.0584 78.5813C97.7642 77.187 96.1608 74.4702 97.8182 73.6265C98.0284 73.5547 98.2026 73.4709 98.3947 73.5247C111.138 76.0201 125.43 79.6645 138.221 82.4411C149.366 83.9252 160.944 87.1985 171.885 90.0949C172.81 90.424 173.2 91.6029 172.612 92.4167C169.723 95.5165 160.349 105.63 158.788 107.311C158.902 107.503 159.358 107.964 159.551 108.197C166.649 113.936 166.577 113.936 188.91 126.341C194.999 129.722 218.304 129.985 231.636 111.351C231.654 111.387 231.654 111.506 231.666 111.584C231.678 111.728 231.678 111.913 231.762 111.793C231.906 111.536 232.116 111.153 232.254 110.86C236.08 103.601 234.512 94.2838 230.801 87.8448L230.771 87.785L230.765 87.767ZM28.3633 43.5022C28.3032 43.4902 28.2492 43.4782 28.1892 43.4663C28.2732 43.4543 28.3513 43.4423 28.4294 43.4304C28.4113 43.4543 28.3873 43.4783 28.3633 43.5022ZM134.041 77.7076C134.173 77.7376 136.863 78.1924 137.074 78.2283C136.095 78.0907 135.086 77.9231 134.041 77.7076ZM137.38 78.2702C138.19 78.3719 138.971 78.4497 139.71 78.4916C139.313 78.5275 138.419 78.4258 137.38 78.2702Z" fill="white"/>
<path d="M203.351 206.289C201.37 198.63 200.295 193.286 194.854 186.47C180.995 164.077 158.169 145.622 137.524 130.117C136.899 130.811 123.069 145.652 122.205 146.585C119.304 150.032 118.493 144.186 117.791 142.235C111.594 122.242 103.979 97.6767 97.8059 77.7435C97.4997 76.6962 96.5809 74.7753 97.4336 73.8538C97.6138 73.6323 98.1062 73.4468 98.3404 73.4887C116.115 77.1331 138.532 82.6086 156.548 86.5641C180.514 92.1294 175.164 87.6293 158.878 107.395C175.176 124.085 205.742 140.523 227.192 122.403C240.307 118.633 202.739 214.829 203.364 206.337L203.351 206.289Z" fill="#001329"/>
</svg>
