<svg width="186" height="40" viewBox="0 0 186 40" fill="none" xmlns="http://www.w3.org/2000/svg">
<path d="M1.78 4.06H2.58L7.44 12.66L12.28 4.06H13.02V17.98H1.78V4.06ZM2.52 17.26H12.28V5.56L7.78 13.48H7.08L2.52 5.44V17.26ZM28.7647 18H15.6447L22.2047 3.78L28.7647 18ZM16.8047 17.26H27.6047L22.2047 5.54L16.8047 17.26ZM13.16 38H2.46V24.08H7.88C9.04 24.08 9.98667 24.2867 10.72 24.7C11.44 25.1 12 25.6467 12.4 26.34C12.8 27.0333 13 27.8 13 28.64C13 29.68 12.68 30.6133 12.04 31.44C11.4 32.2533 10.5933 32.7933 9.62 33.06L13.16 38ZM3.72 24.82L9.16 32.42C10.0533 32.2333 10.7933 31.7867 11.38 31.08C11.9667 30.3733 12.26 29.56 12.26 28.64C12.26 27.9067 12.08 27.24 11.72 26.64C11.36 26.04 10.8533 25.58 10.2 25.26C9.61333 24.9667 8.84667 24.82 7.9 24.82H3.72ZM3.2 25.3V32.48H8.34L3.2 25.3ZM3.2 37.26H11.76L8.84 33.2L8.22 33.22H3.2V37.26ZM22.4047 29.88L28.2047 38H17.0047V24.08H28.2047L22.4047 29.88ZM21.8847 30.4L17.7447 34.54V37.26H26.7847L21.8847 30.4Z" fill="white"/>
<path d="M56.9785 26.1846C55.0625 26.1846 53.627 25.792 52.6719 25.0068C51.7168 24.2217 51.2393 22.9121 51.2393 21.0781V16.8242C51.2393 16.6719 51.2627 16.5312 51.3096 16.4023C51.3564 16.2734 51.4648 16.209 51.6348 16.209C51.7812 16.209 51.875 16.2734 51.916 16.4023C51.9629 16.5312 51.9863 16.6719 51.9863 16.8242V21.0781C51.9863 22.0977 52.1357 22.9443 52.4346 23.6182C52.7334 24.2861 53.2461 24.7842 53.9727 25.1123C54.6992 25.4404 55.7012 25.6045 56.9785 25.6045C58.2559 25.6045 59.2549 25.4404 59.9756 25.1123C60.7021 24.7842 61.2119 24.2861 61.5049 23.6182C61.8037 22.9443 61.9531 22.0977 61.9531 21.0781V16.8242C61.9531 16.6719 61.9766 16.5312 62.0234 16.4023C62.0703 16.2734 62.167 16.209 62.3135 16.209C62.4834 16.209 62.5889 16.2734 62.6299 16.4023C62.6768 16.5312 62.7002 16.6719 62.7002 16.8242V21.0781C62.7002 22.9121 62.2256 24.2217 61.2764 25.0068C60.3271 25.792 58.8945 26.1846 56.9785 26.1846ZM64.959 26C64.8184 26 64.6748 25.9912 64.5283 25.9736C64.3877 25.9561 64.3174 25.8623 64.3174 25.6924C64.3174 25.5459 64.3848 25.4639 64.5195 25.4463C64.6602 25.4287 64.8066 25.4199 64.959 25.4199H68.0967V16.7891H64.959C64.8066 16.7891 64.6602 16.7803 64.5195 16.7627C64.3848 16.7451 64.3174 16.6631 64.3174 16.5166C64.3174 16.3467 64.3877 16.2529 64.5283 16.2354C64.6748 16.2178 64.8184 16.209 64.959 16.209H71.9814C72.1514 16.209 72.2979 16.2178 72.4209 16.2354C72.5498 16.2529 72.6143 16.3408 72.6143 16.499C72.6143 16.6572 72.5498 16.7451 72.4209 16.7627C72.2979 16.7803 72.1514 16.7891 71.9814 16.7891H68.8438V25.4199H71.9814C72.1514 25.4199 72.2979 25.4287 72.4209 25.4463C72.5498 25.4639 72.6143 25.5518 72.6143 25.71C72.6143 25.8682 72.5498 25.9561 72.4209 25.9736C72.2979 25.9912 72.1514 26 71.9814 26H64.959ZM73.7656 26.4658C73.6367 26.4658 73.5488 26.4277 73.502 26.3516C73.4609 26.2812 73.4404 26.2139 73.4404 26.1494C73.4346 26.085 73.4434 26.0264 73.4668 25.9736C73.4961 25.915 73.5225 25.8506 73.5459 25.7803L77.1494 16.1738C77.1904 16.0391 77.2373 15.9219 77.29 15.8223C77.3486 15.7168 77.4453 15.6641 77.5801 15.6641C77.7031 15.6641 77.7822 15.6963 77.8174 15.7607C77.8525 15.8252 77.8701 15.8955 77.8701 15.9717C77.8701 16.0303 77.8613 16.0918 77.8438 16.1562C77.8262 16.2207 77.8057 16.2852 77.7822 16.3496L74.1611 25.9648C74.0967 26.0996 74.041 26.2168 73.9941 26.3164C73.9473 26.416 73.8711 26.4658 73.7656 26.4658ZM85.2793 26.1846C83.3633 26.1846 81.9277 25.792 80.9727 25.0068C80.0176 24.2217 79.54 22.9121 79.54 21.0781V16.8242C79.54 16.6719 79.5635 16.5312 79.6104 16.4023C79.6572 16.2734 79.7656 16.209 79.9355 16.209C80.082 16.209 80.1758 16.2734 80.2168 16.4023C80.2637 16.5312 80.2871 16.6719 80.2871 16.8242V21.0781C80.2871 22.0977 80.4365 22.9443 80.7354 23.6182C81.0342 24.2861 81.5469 24.7842 82.2734 25.1123C83 25.4404 84.002 25.6045 85.2793 25.6045C86.5566 25.6045 87.5557 25.4404 88.2764 25.1123C89.0029 24.7842 89.5127 24.2861 89.8057 23.6182C90.1045 22.9443 90.2539 22.0977 90.2539 21.0781V16.8242C90.2539 16.6719 90.2773 16.5312 90.3242 16.4023C90.3711 16.2734 90.4678 16.209 90.6143 16.209C90.7842 16.209 90.8896 16.2734 90.9307 16.4023C90.9775 16.5312 91.001 16.6719 91.001 16.8242V21.0781C91.001 22.9121 90.5264 24.2217 89.5771 25.0068C88.6279 25.792 87.1953 26.1846 85.2793 26.1846ZM93.6553 26C93.4912 26 93.4092 25.9209 93.4092 25.7627C93.4092 25.6279 93.4824 25.4902 93.6289 25.3496L98.085 21.1924L93.708 16.8418C93.6025 16.7363 93.5498 16.6279 93.5498 16.5166C93.5498 16.3174 93.6436 16.2178 93.8311 16.2178C93.9482 16.2178 94.0654 16.2764 94.1826 16.3936L98.542 20.7617L102.901 16.3936C103.019 16.2764 103.136 16.2178 103.253 16.2178C103.435 16.2178 103.525 16.3174 103.525 16.5166C103.525 16.6338 103.476 16.7422 103.376 16.8418L98.999 21.1924L103.455 25.3408C103.596 25.4756 103.666 25.6133 103.666 25.7539C103.666 25.918 103.587 26 103.429 26C103.3 26 103.162 25.9297 103.016 25.7891L98.542 21.623L94.0684 25.7979C93.9277 25.9326 93.79 26 93.6553 26ZM110.653 26C110.483 26 110.384 25.9883 110.354 25.9648C110.325 25.9355 110.311 25.8447 110.311 25.6924V16.5342C110.311 16.3643 110.325 16.2676 110.354 16.2441C110.384 16.2207 110.489 16.209 110.671 16.209H116.7C117.978 16.209 119.044 16.3613 119.899 16.666C120.761 16.9707 121.408 17.4805 121.842 18.1953C122.281 18.9043 122.501 19.8682 122.501 21.0869C122.501 22.335 122.281 23.3164 121.842 24.0312C121.408 24.7461 120.761 25.2529 119.899 25.5518C119.044 25.8506 117.978 26 116.7 26H110.653ZM111.058 25.4199H116.7C117.972 25.4199 118.974 25.2734 119.706 24.9805C120.444 24.6816 120.969 24.2129 121.279 23.5742C121.596 22.9355 121.754 22.1064 121.754 21.0869C121.754 20.0791 121.596 19.2588 121.279 18.626C120.969 17.9932 120.444 17.5303 119.706 17.2373C118.974 16.9385 117.972 16.7891 116.7 16.7891H111.058V25.4199ZM128.794 26.0967C127.329 26.0967 126.271 25.792 125.621 25.1826C124.971 24.5674 124.646 23.7119 124.646 22.6162C124.646 21.708 124.83 20.999 125.199 20.4893C125.574 19.9795 126.081 19.6191 126.72 19.4082C127.358 19.1973 128.07 19.0918 128.855 19.0918C130.074 19.0918 130.985 19.3262 131.589 19.7949C132.198 20.2578 132.503 20.9229 132.503 21.79C132.503 21.9482 132.479 22.1357 132.433 22.3525C132.386 22.5635 132.339 22.6689 132.292 22.6689L125.349 22.5811C125.372 23.7354 125.671 24.5234 126.245 24.9453C126.825 25.3672 127.672 25.5781 128.785 25.5781C129.441 25.5781 129.989 25.5195 130.429 25.4023C130.874 25.2793 131.231 25.1445 131.501 24.998C131.776 24.8457 131.979 24.7256 132.107 24.6377C132.125 24.626 132.148 24.6201 132.178 24.6201C132.242 24.6201 132.301 24.6523 132.354 24.7168C132.412 24.7754 132.441 24.8398 132.441 24.9102C132.441 24.9746 132.412 25.0273 132.354 25.0684C132.289 25.1328 132.122 25.25 131.853 25.4199C131.589 25.584 131.205 25.7393 130.701 25.8857C130.203 26.0264 129.567 26.0967 128.794 26.0967ZM125.357 22.1504H131.984V21.7373C131.984 21.3447 131.885 20.9902 131.686 20.6738C131.486 20.3516 131.158 20.0938 130.701 19.9004C130.244 19.707 129.629 19.6104 128.855 19.6104C127.771 19.6104 126.928 19.7979 126.324 20.1729C125.727 20.5479 125.404 21.207 125.357 22.1504ZM138.937 26.0879C138.521 26.0879 138.061 26.0703 137.557 26.0352C137.053 26.0059 136.563 25.9326 136.089 25.8154C135.62 25.6924 135.216 25.499 134.876 25.2354C134.794 25.1709 134.753 25.0947 134.753 25.0068C134.753 24.8193 134.829 24.7256 134.981 24.7256C135.028 24.7256 135.063 24.7373 135.087 24.7607C135.579 25.1006 136.145 25.3203 136.783 25.4199C137.422 25.5195 138.11 25.5693 138.849 25.5693C139.435 25.5693 139.985 25.5283 140.501 25.4463C141.017 25.3643 141.433 25.2207 141.749 25.0156C142.071 24.8105 142.232 24.5264 142.232 24.1631C142.232 23.8057 142.092 23.5391 141.811 23.3633C141.535 23.1875 141.169 23.0674 140.712 23.0029C140.261 22.9385 139.763 22.9004 139.218 22.8887C138.673 22.877 138.125 22.8594 137.574 22.8359C137.029 22.8125 136.528 22.751 136.071 22.6514C135.62 22.5459 135.254 22.373 134.973 22.1328C134.697 21.8926 134.56 21.5498 134.56 21.1045C134.56 20.5654 134.744 20.1523 135.113 19.8652C135.488 19.5723 135.966 19.3701 136.546 19.2588C137.126 19.1475 137.727 19.0918 138.348 19.0918C139.098 19.0918 139.81 19.1562 140.483 19.2852C141.163 19.4141 141.781 19.625 142.338 19.918C142.432 19.9707 142.484 20.0527 142.496 20.1641C142.496 20.2402 142.473 20.3076 142.426 20.3662C142.379 20.4248 142.326 20.4541 142.268 20.4541C142.232 20.4541 142.209 20.4482 142.197 20.4365C141.699 20.1846 141.131 19.9854 140.492 19.8389C139.854 19.6865 139.15 19.6104 138.383 19.6104C137.855 19.6104 137.352 19.6572 136.871 19.751C136.396 19.8389 136.01 19.9912 135.711 20.208C135.412 20.4248 135.263 20.7236 135.263 21.1045C135.263 21.4443 135.4 21.6963 135.676 21.8604C135.957 22.0186 136.323 22.127 136.774 22.1855C137.231 22.2441 137.732 22.2793 138.277 22.291C138.828 22.3027 139.376 22.3232 139.921 22.3525C140.466 22.3818 140.964 22.4521 141.415 22.5635C141.872 22.6748 142.238 22.8564 142.514 23.1084C142.795 23.3545 142.936 23.7061 142.936 24.1631C142.936 24.6436 142.745 25.0244 142.364 25.3057C141.989 25.5811 141.497 25.7803 140.888 25.9033C140.278 26.0264 139.628 26.0879 138.937 26.0879ZM145.273 26C145.109 26 145.01 25.9502 144.975 25.8506C144.939 25.751 144.922 25.6162 144.922 25.4463V19.8037C144.922 19.6338 144.939 19.4902 144.975 19.373C145.01 19.25 145.109 19.1885 145.273 19.1885C145.42 19.1885 145.514 19.25 145.555 19.373C145.602 19.4961 145.625 19.6338 145.625 19.7861V25.4463C145.625 25.5986 145.607 25.7305 145.572 25.8418C145.543 25.9473 145.443 26 145.273 26ZM145.265 17.7383C145.112 17.7383 144.989 17.6943 144.896 17.6064C144.802 17.5127 144.755 17.3926 144.755 17.2461C144.755 17.0938 144.802 16.9707 144.896 16.877C144.989 16.7773 145.112 16.7275 145.265 16.7275C145.411 16.7275 145.534 16.7773 145.634 16.877C145.739 16.9707 145.792 17.0938 145.792 17.2461C145.792 17.3926 145.739 17.5127 145.634 17.6064C145.534 17.6943 145.411 17.7383 145.265 17.7383ZM152.103 28.9883C151.253 28.9883 150.579 28.9121 150.081 28.7598C149.589 28.6133 149.188 28.4697 148.877 28.3291C148.76 28.2705 148.672 28.1973 148.613 28.1094C148.561 28.0273 148.534 27.9512 148.534 27.8809C148.534 27.7285 148.61 27.6523 148.763 27.6523C148.833 27.6523 148.912 27.6758 149 27.7227C149.316 27.8691 149.727 28.0127 150.23 28.1533C150.74 28.2998 151.364 28.373 152.103 28.373C153.063 28.373 153.857 28.2002 154.484 27.8545C155.117 27.5088 155.434 26.958 155.434 26.2021V25.1562C154.93 25.5078 154.364 25.751 153.737 25.8857C153.116 26.0205 152.516 26.0879 151.936 26.0879C151.039 26.0879 150.274 25.9883 149.642 25.7891C149.015 25.5898 148.534 25.2324 148.2 24.7168C147.872 24.2012 147.708 23.4746 147.708 22.5371C147.708 21.6641 147.887 20.9785 148.244 20.4805C148.607 19.9766 149.111 19.6191 149.756 19.4082C150.406 19.1973 151.159 19.0918 152.015 19.0918C152.882 19.0918 153.553 19.1855 154.027 19.373C154.502 19.5605 154.839 19.7861 155.038 20.0498C155.243 20.3135 155.375 20.5566 155.434 20.7793C155.434 20.6738 155.428 20.5537 155.416 20.4189C155.41 20.2783 155.407 20.1406 155.407 20.0059C155.407 19.8066 155.425 19.6338 155.46 19.4873C155.501 19.3408 155.586 19.2676 155.715 19.2676C155.885 19.2676 155.996 19.335 156.049 19.4697C156.107 19.6045 156.137 19.7422 156.137 19.8828V26.2021C156.137 27.1279 155.785 27.8223 155.082 28.2852C154.385 28.7539 153.392 28.9883 152.103 28.9883ZM151.971 25.5693C152.58 25.5693 153.189 25.502 153.799 25.3672C154.408 25.2266 154.953 24.998 155.434 24.6816V21.3945C155.375 21.1719 155.243 20.9287 155.038 20.665C154.833 20.4014 154.499 20.1758 154.036 19.9883C153.579 19.7949 152.929 19.6982 152.085 19.6982C150.866 19.6982 149.949 19.918 149.334 20.3574C148.719 20.791 148.411 21.5498 148.411 22.6338C148.411 23.3545 148.522 23.9287 148.745 24.3564C148.974 24.7842 149.349 25.0947 149.87 25.2881C150.392 25.4756 151.092 25.5693 151.971 25.5693ZM159.318 26C159.154 26 159.049 25.9326 159.002 25.7979C158.961 25.6631 158.94 25.5195 158.94 25.3672V19.6719C158.94 19.5723 158.961 19.4814 159.002 19.3994C159.043 19.3115 159.146 19.2676 159.31 19.2676C159.456 19.2676 159.547 19.3086 159.582 19.3906C159.623 19.4668 159.644 19.5605 159.644 19.6719V20.6387C159.972 20.1816 160.35 19.8447 160.777 19.6279C161.205 19.4053 161.645 19.2617 162.096 19.1973C162.547 19.127 162.972 19.0918 163.37 19.0918C164.208 19.0918 164.87 19.1943 165.356 19.3994C165.849 19.5986 166.2 19.9326 166.411 20.4014C166.622 20.8701 166.728 21.5117 166.728 22.3262V25.3672C166.728 25.5195 166.701 25.6631 166.648 25.7979C166.602 25.9326 166.508 26 166.367 26C166.197 26 166.098 25.9326 166.068 25.7979C166.039 25.6631 166.024 25.5195 166.024 25.3672V22.3262C166.024 21.7168 165.957 21.2129 165.822 20.8145C165.688 20.4102 165.427 20.1084 165.04 19.9092C164.659 19.71 164.094 19.6104 163.344 19.6104C162.887 19.6104 162.397 19.6631 161.876 19.7686C161.36 19.874 160.895 20.0557 160.479 20.3135C160.062 20.5713 159.784 20.9316 159.644 21.3945V25.3672C159.644 25.5195 159.626 25.6631 159.591 25.7979C159.556 25.9326 159.465 26 159.318 26ZM173.231 26.0967C171.767 26.0967 170.709 25.792 170.059 25.1826C169.408 24.5674 169.083 23.7119 169.083 22.6162C169.083 21.708 169.268 20.999 169.637 20.4893C170.012 19.9795 170.519 19.6191 171.157 19.4082C171.796 19.1973 172.508 19.0918 173.293 19.0918C174.512 19.0918 175.423 19.3262 176.026 19.7949C176.636 20.2578 176.94 20.9229 176.94 21.79C176.94 21.9482 176.917 22.1357 176.87 22.3525C176.823 22.5635 176.776 22.6689 176.729 22.6689L169.786 22.5811C169.81 23.7354 170.108 24.5234 170.683 24.9453C171.263 25.3672 172.109 25.5781 173.223 25.5781C173.879 25.5781 174.427 25.5195 174.866 25.4023C175.312 25.2793 175.669 25.1445 175.938 24.998C176.214 24.8457 176.416 24.7256 176.545 24.6377C176.562 24.626 176.586 24.6201 176.615 24.6201C176.68 24.6201 176.738 24.6523 176.791 24.7168C176.85 24.7754 176.879 24.8398 176.879 24.9102C176.879 24.9746 176.85 25.0273 176.791 25.0684C176.727 25.1328 176.56 25.25 176.29 25.4199C176.026 25.584 175.643 25.7393 175.139 25.8857C174.641 26.0264 174.005 26.0967 173.231 26.0967ZM169.795 22.1504H176.422V21.7373C176.422 21.3447 176.322 20.9902 176.123 20.6738C175.924 20.3516 175.596 20.0938 175.139 19.9004C174.682 19.707 174.066 19.6104 173.293 19.6104C172.209 19.6104 171.365 19.7979 170.762 20.1729C170.164 20.5479 169.842 21.207 169.795 22.1504ZM179.7 26C179.536 26 179.434 25.9355 179.393 25.8066C179.357 25.6777 179.34 25.5371 179.34 25.3848V19.7598C179.34 19.625 179.363 19.5107 179.41 19.417C179.463 19.3174 179.571 19.2676 179.735 19.2676C179.864 19.2676 179.946 19.3145 179.981 19.4082C180.022 19.502 180.043 19.6191 180.043 19.7598V20.7793C180.172 20.2988 180.409 19.9385 180.755 19.6982C181.106 19.458 181.487 19.2969 181.897 19.2148C182.308 19.1328 182.665 19.0918 182.97 19.0918C183.421 19.0918 183.752 19.1152 183.963 19.1621C184.174 19.209 184.361 19.2559 184.525 19.3027C184.648 19.3379 184.71 19.4258 184.71 19.5664C184.71 19.6426 184.684 19.7129 184.631 19.7773C184.584 19.8418 184.511 19.874 184.411 19.874C184.388 19.874 184.37 19.874 184.358 19.874C184.353 19.8682 184.335 19.8623 184.306 19.8564C184.077 19.792 183.857 19.7422 183.646 19.707C183.436 19.6719 183.21 19.6543 182.97 19.6543C182.278 19.6543 181.663 19.792 181.124 20.0674C180.591 20.3369 180.23 20.7617 180.043 21.3418V25.3848C180.043 25.5371 180.022 25.6777 179.981 25.8066C179.94 25.9355 179.847 26 179.7 26Z" fill="white" fill-opacity="0.9"/>
<line x1="38.5" x2="38.5" y2="40" stroke="white" stroke-opacity="0.3"/>
</svg>
