<svg width="150" height="159" viewBox="0 0 150 159" fill="none" xmlns="http://www.w3.org/2000/svg">
<path fill-rule="evenodd" clip-rule="evenodd" d="M73.0379 144.033L64.729 142.051V108.595L73.0379 107.014V144.033ZM131.16 136.145C125.133 136.165 120.248 131.3 120.208 125.273V125.213C120.208 119.287 125.073 114.422 131.14 114.422C137.206 114.422 142.072 119.287 142.072 125.213C142.092 131.24 137.206 136.125 131.2 136.145H131.16ZM150 125.213C150 135.624 141.571 144.053 131.16 144.053C120.749 144.053 112.32 135.624 112.32 125.213C112.32 114.942 120.769 106.513 131.18 106.513C141.591 106.513 150 114.942 150 125.213ZM43.106 142.071L51.2747 143.773V121.249C51.2747 110.437 42.8457 106.633 37.0395 106.633C33.2154 106.633 30.0521 107.554 27.2891 110.317C24.386 107.554 20.9624 106.493 18.1994 106.493C14.1151 106.493 10.6914 108.195 8.30886 111.098V107.274L0 108.856V142.051L8.30886 143.753V120.989C8.30886 117.305 10.9517 114.802 15.016 114.802C18.8401 114.802 21.603 117.305 21.603 120.989V142.071L29.7718 143.773V120.989C29.7718 117.305 32.5347 114.802 36.4989 114.802C40.323 114.802 43.086 117.305 43.086 120.989L43.106 142.071ZM106.113 106.513L101.228 107.174C92.1383 109.276 86.212 112.179 86.212 122.19V142.071L94.5208 143.653V123.371C94.5208 118.766 97.1636 116.644 101.248 115.863L106.133 115.082L106.113 106.513ZM65.1295 92.7986C63.1474 94.8208 63.1474 98.0242 65.1295 100.046C67.1516 102.129 70.4952 102.149 72.5574 100.126L72.6375 100.046C74.6196 98.0442 74.6196 94.8007 72.6375 92.7986C70.5152 90.8165 67.2317 90.8165 65.1295 92.7986Z" fill="white"/>
<path d="M48.712 13.9745H87.0529C95.1415 13.9745 101.708 20.5415 101.708 28.6301V66.971C101.708 75.0596 95.1415 81.6266 87.0529 81.6266H48.712C40.6233 81.6266 34.0563 75.0596 34.0563 66.971V28.6301C34.0563 20.5415 40.6233 13.9745 48.712 13.9745Z" fill="#FFD02F"/>
<path d="M81.0665 22.4236H73.6386L79.8252 33.2952L66.2106 22.4236H58.7827L65.59 35.7178L51.3548 22.4236H43.9269L51.3548 39.3416L43.9269 73.1777H51.3548L65.59 36.919L58.7827 73.1777H66.2106L79.8252 34.5165L73.6386 73.1777H81.0665L94.681 30.8726L81.0665 22.4236Z" fill="#050038"/>
</svg>
